<svg width="10" height="10" viewBox="0 0 10 10" fill="none" xmlns="http://www.w3.org/2000/svg">
<path d="M5.55556 5.55556H4.44444V2.22222H5.55556V5.55556ZM5 7.94444C4.80845 7.94444 4.62475 7.86835 4.48931 7.73291C4.35387 7.59747 4.27778 7.41377 4.27778 7.22222C4.27778 7.03068 4.35387 6.84698 4.48931 6.71153C4.62475 6.57609 4.80845 6.5 5 6.5C5.19155 6.5 5.37525 6.57609 5.51069 6.71153C5.64613 6.84698 5.72222 7.03068 5.72222 7.22222C5.72222 7.41377 5.64613 7.59747 5.51069 7.73291C5.37525 7.86835 5.19155 7.94444 5 7.94444ZM7.07222 0H2.92778L0 2.92778V7.07222L2.92778 10H7.07222L10 7.07222V2.92778L7.07222 0Z" fill="black"/>
</svg>
