<svg width="18" height="15" viewBox="0 0 18 15" fill="none" xmlns="http://www.w3.org/2000/svg">
<path d="M17.3397 2.27727L15.1821 0.113515C15.1096 0.0408425 15.0112 0 14.9086 0C14.8059 0 14.7075 0.0408425 14.635 0.113515L5.52251 9.23219C5.45003 9.30487 5.3516 9.34571 5.24895 9.34571C5.14631 9.34571 5.04788 9.30487 4.97539 9.23219L2.81782 7.06844C2.74533 6.99577 2.64691 6.95493 2.54426 6.95493C2.44162 6.95493 2.34319 6.99577 2.2707 7.06844L0.113128 9.23219C-0.0377094 9.38308 -0.0377094 9.62766 0.113128 9.77854L4.97539 14.6416C5.04788 14.7143 5.14631 14.7551 5.24895 14.7551C5.3516 14.7551 5.45003 14.7143 5.52251 14.6416L17.3397 2.81821C17.487 2.66797 17.487 2.42751 17.3397 2.27727Z" fill="#C3AB7A"/>
</svg>
