<svg width="64" height="64" viewBox="0 0 64 64" fill="none" xmlns="http://www.w3.org/2000/svg">
<path d="M57.6 32C57.6 38.7895 54.9029 45.301 50.1019 50.1019C45.301 54.9029 38.7895 57.6 32 57.6C25.2105 57.6 18.699 54.9029 13.8981 50.1019C9.09714 45.301 6.4 38.7895 6.4 32C6.4 25.2105 9.09714 18.699 13.8981 13.8981C18.699 9.09714 25.2105 6.4 32 6.4C34.432 6.4 36.8 6.752 39.04 7.392L44.064 2.368C40.352 0.832 36.288 0 32 0C27.7977 0 23.6365 0.827705 19.7541 2.43586C15.8717 4.04401 12.3441 6.40111 9.37258 9.37258C3.37142 15.3737 0 23.5131 0 32C0 40.4869 3.37142 48.6263 9.37258 54.6274C12.3441 57.5989 15.8717 59.956 19.7541 61.5641C23.6365 63.1723 27.7977 64 32 64C40.4869 64 48.6263 60.6286 54.6274 54.6274C60.6286 48.6263 64 40.4869 64 32H57.6ZM18.912 25.856L14.4 30.4L28.8 44.8L60.8 12.8L56.288 8.256L28.8 35.744L18.912 25.856Z" fill="#C3AB7A"/>
</svg>
