<svg width="32" height="32" viewBox="0 0 32 32" fill="none" xmlns="http://www.w3.org/2000/svg">
<path d="M16 0C20.345 9.90193e-07 20.8901 0.0188346 22.5967 0.0966797C24.2993 0.174379 25.4619 0.444422 26.4795 0.839844C27.5316 1.24867 28.4247 1.79609 29.3145 2.68555C30.2035 3.57501 30.7503 4.46754 31.1592 5.51953C31.5545 6.53719 31.8256 7.7004 31.9033 9.40332C31.981 11.1096 31.999 11.655 31.999 16C31.999 20.345 31.981 20.8901 31.9033 22.5967C31.8256 24.2992 31.5545 25.4621 31.1592 26.4795C30.7503 27.5317 30.2037 28.4249 29.3145 29.3145C28.4247 30.2039 27.5316 30.7503 26.4795 31.1592C25.4619 31.5546 24.2994 31.8256 22.5967 31.9033C20.8901 31.9812 20.345 31.999 16 31.999C11.6549 31.999 11.1096 31.9812 9.40332 31.9033C7.70026 31.8256 6.53685 31.5547 5.51953 31.1592C4.4676 30.7504 3.57517 30.2036 2.68555 29.3145C1.79623 28.4249 1.24869 27.5317 0.839844 26.4795C0.44457 25.4621 0.17438 24.2991 0.0966797 22.5967C0.0185502 20.8901 9.79676e-07 20.345 0 16C0 11.655 0.0185594 11.1096 0.0966797 9.40332C0.174361 7.70046 0.444502 6.53716 0.839844 5.51953C1.24869 4.46741 1.79623 3.57511 2.68555 2.68555C3.57528 1.79611 4.46748 1.24866 5.51953 0.839844C6.53683 0.444328 7.70031 0.174363 9.40332 0.0966797C11.1097 0.0188436 11.6548 0 16 0ZM16 2.88281C11.7283 2.88281 11.2219 2.89962 9.53516 2.97656C7.97487 3.04771 7.12682 3.30822 6.56348 3.52734C5.81695 3.81749 5.28422 4.16407 4.72461 4.72363C4.16478 5.28343 3.81769 5.81676 3.52734 6.56348C3.30818 7.12723 3.04777 7.97444 2.97656 9.53418C2.89975 11.2213 2.88281 11.7279 2.88281 16C2.88281 20.2717 2.89976 20.7778 2.97656 22.4648C3.04774 24.0245 3.30818 24.8718 3.52734 25.4355C3.8177 26.1824 4.16473 26.7156 4.72461 27.2754C5.28433 27.8352 5.81678 28.1824 6.56348 28.4727C7.12682 28.6919 7.97487 28.9523 9.53516 29.0234C11.2214 29.1004 11.7279 29.1162 16 29.1162C20.2722 29.1162 20.7779 29.1004 22.4648 29.0234C24.0244 28.9523 24.8716 28.6918 25.4355 28.4727C26.1823 28.1824 26.7155 27.8353 27.2754 27.2754C27.8352 26.7156 28.1827 26.1824 28.4727 25.4355C28.6918 24.8718 28.9523 24.0243 29.0234 22.4648C29.1002 20.7778 29.1172 20.2717 29.1172 16C29.1172 11.7279 29.1002 11.2213 29.0234 9.53418C28.9523 7.97444 28.6918 7.12723 28.4727 6.56348C28.1827 5.81667 27.8352 5.28348 27.2754 4.72363C26.7155 4.16392 26.1822 3.81754 25.4355 3.52734C24.8716 3.30824 24.0245 3.0477 22.4648 2.97656C20.7779 2.89961 20.2719 2.88281 16 2.88281ZM15.999 7.78418C20.5367 7.78418 24.2158 11.4624 24.2158 16C24.2157 20.5376 20.5366 24.2158 15.999 24.2158C11.4616 24.2156 7.78332 20.5375 7.7832 16C7.7832 11.4625 11.4615 7.78439 15.999 7.78418ZM16 10.667C13.0543 10.667 10.666 13.0545 10.666 16C10.6661 18.9455 13.0543 21.333 16 21.333C18.9449 21.3328 21.3329 18.9453 21.333 16C21.333 13.0546 18.945 10.6672 16 10.667ZM24.541 5.53906C25.6013 5.53918 26.4608 6.39879 26.4609 7.45898C26.4609 8.5193 25.6013 9.37879 24.541 9.37891C23.4808 9.37891 22.6211 8.51937 22.6211 7.45898C22.6212 6.39872 23.4808 5.53906 24.541 5.53906Z" fill="white"/>
</svg>
