<svg width="18" height="12" viewBox="0 0 18 12" fill="none" xmlns="http://www.w3.org/2000/svg">
<path d="M1.5 0H16.5C17.2875 0 18 0.633333 18 1.33333V10.6667C18 11.3667 17.2875 12 16.5 12H1.5C0.7125 12 0 11.3667 0 10.6667V1.33333C0 0.633333 0.7125 0 1.5 0ZM10.5 2V2.66667H16.5V2H10.5ZM10.5 3.33333V4H16.125H16.5V3.33333H10.5ZM10.5 4.66667V5.33333H15.75V4.66667H10.5ZM6 7.27333C4.5 7.27333 1.5 8 1.5 9.33333V10H10.5V9.33333C10.5 8 7.5 7.27333 6 7.27333ZM6 2C5.40326 2 4.83097 2.21071 4.40901 2.58579C3.98705 2.96086 3.75 3.46957 3.75 4C3.75 4.53043 3.98705 5.03914 4.40901 5.41421C4.83097 5.78929 5.40326 6 6 6C6.59674 6 7.16903 5.78929 7.59099 5.41421C8.01295 5.03914 8.25 4.53043 8.25 4C8.25 3.46957 8.01295 2.96086 7.59099 2.58579C7.16903 2.21071 6.59674 2 6 2Z" fill="#555555"/>
</svg>
