<svg width="24" height="21" viewBox="0 0 24 21" fill="none" xmlns="http://www.w3.org/2000/svg">
<path fill-rule="evenodd" clip-rule="evenodd" d="M23.344 4.68962C23.7547 4.95046 24.0003 5.38412 24 5.84771V19.5983C24.0008 20.1263 23.6831 20.6098 23.1784 20.8486C22.6738 21.0875 22.068 21.0409 21.612 20.7283L15.775 16.7436C15.5989 16.6229 15.3591 16.6229 15.183 16.7436L9.351 20.7461L9.332 20.7591C8.82401 21.0756 8.16114 21.073 7.656 20.7526L0.656001 16.3097C0.245327 16.0489 -0.000321327 15.6152 6.18051e-07 15.1516V1.40106C-0.00051132 0.873352 0.317045 0.390222 0.821346 0.151468C1.32565 -0.0872865 1.93098 -0.0410846 2.387 0.270967L8.224 4.25569C8.40013 4.37642 8.63987 4.37642 8.816 4.25569L14.648 0.252303L14.667 0.240172C15.1746 -0.0785033 15.8392 -0.0759145 16.344 0.246704L23.344 4.68962ZM9.7 5.95515C9.5741 6.04327 9.5 6.18157 9.5 6.32843V17.9298C9.5 18.0182 9.5535 18.099 9.6382 18.1385C9.72289 18.178 9.82425 18.1695 9.9 18.1165L14.3 15.0444C14.4259 14.9563 14.5 14.818 14.5 14.6711V3.07067C14.5 2.9823 14.4465 2.90152 14.3618 2.862C14.2771 2.82248 14.1758 2.83101 14.1 2.88403L9.7 5.95515ZM2.00024 2.77938C2.00024 2.69102 2.05375 2.61023 2.13844 2.57071C2.22314 2.5312 2.32449 2.53972 2.40024 2.59274L7.30024 5.93356C7.42803 6.0207 7.50407 6.15915 7.50524 6.30684V17.9549C7.50549 18.0414 7.45425 18.1209 7.37224 18.1611C7.29021 18.2014 7.19113 18.1964 7.11424 18.1481L2.22424 15.0434C2.08552 14.9577 2.00155 14.8132 2.00024 14.6579V2.77938ZM21.8618 18.4276C21.9465 18.3881 22 18.3073 22 18.219V6.34134C22.0001 6.18664 21.9181 6.04194 21.781 5.955L16.891 2.85121C16.8141 2.80291 16.715 2.7979 16.633 2.83815C16.551 2.87844 16.4998 2.9579 16.5 3.04438V14.6897C16.5 14.8365 16.5741 14.9748 16.7 15.0629L21.6 18.4056C21.6758 18.4586 21.7771 18.4672 21.8618 18.4276Z" fill="white"/>
</svg>
